<?xml version="1.0" standalone="no"?>
<!DOCTYPE svg PUBLIC "-//W3C//DTD SVG 20010904//EN"
 "http://www.w3.org/TR/2001/REC-SVG-20010904/DTD/svg10.dtd">
<svg version="1.0" xmlns="http://www.w3.org/2000/svg"
 width="276.000000pt" height="276.000000pt" viewBox="0 0 276.000000 276.000000"
 preserveAspectRatio="xMidYMid meet">

<g transform="translate(0.000000,276.000000) scale(0.100000,-0.100000)"
fill="#000000" stroke="none">
<path d="M120 1610 l0 -860 -60 0 -60 0 0 -125 0 -125 73 -110 72 -110 1240 0
1240 0 68 105 67 105 0 130 0 130 -55 0 -55 0 0 860 0 860 -1265 0 -1265 0 0
-860z m2410 -60 l0 -800 -1145 0 -1145 0 0 800 0 800 1145 0 1145 0 0 -800z
m120 -967 c0 -39 -8 -58 -46 -115 l-45 -68 -1177 0 -1177 1 -42 65 c-36 54
-43 73 -43 114 l0 50 1265 0 1265 0 0 -47z"/>
<path d="M404 2123 l1 -58 260 0 260 0 3 58 3 57 -264 0 -264 0 1 -57z"/>
<path d="M1040 2120 l0 -61 143 3 142 3 3 58 3 57 -146 0 -145 0 0 -60z"/>
<path d="M406 1892 c-3 -3 -6 -29 -6 -59 l0 -53 320 0 320 0 0 60 0 61 -314
-2 c-173 0 -317 -3 -320 -7z"/>
<path d="M1156 1892 c-4 -3 -6 -29 -6 -59 l0 -53 115 0 115 0 0 60 0 61 -109
-2 c-61 -1 -112 -4 -115 -7z"/>
<path d="M1500 1840 l0 -60 430 0 430 0 0 60 0 60 -430 0 -430 0 0 -60z"/>
<path d="M406 1601 c-3 -5 -5 -32 -5 -60 l2 -51 173 0 174 0 0 60 0 60 -169 0
c-94 0 -172 -4 -175 -9z"/>
<path d="M866 1593 c-3 -10 -5 -37 -4 -60 l0 -43 349 0 349 0 0 60 0 60 -344
0 c-320 0 -345 -1 -350 -17z"/>
<path d="M1670 1550 l0 -61 88 3 87 3 0 55 0 55 -87 3 -88 3 0 -61z"/>
<path d="M1881 1182 c-61 -153 -111 -283 -113 -291 -4 -17 89 -58 102 -45 10
10 232 565 228 568 -2 2 -26 12 -55 23 l-52 21 -110 -276z"/>
<path d="M1535 1270 l-120 -120 123 -122 122 -123 41 41 40 40 -75 76 c-42 42
-76 80 -76 84 0 5 34 43 77 86 l76 76 -40 41 c-22 23 -42 41 -44 41 -2 0 -58
-54 -124 -120z"/>
<path d="M2155 1350 l-39 -40 77 -78 c42 -43 77 -82 77 -87 0 -5 -34 -44 -75
-85 l-75 -76 40 -39 40 -39 123 122 122 122 -120 120 c-66 66 -122 120 -125
120 -3 0 -24 -18 -45 -40z"/>
<path d="M402 1263 l3 -58 260 0 260 0 3 58 3 57 -266 0 -266 0 3 -57z"/>
<path d="M1040 1260 l0 -60 145 0 145 0 0 60 0 60 -145 0 -145 0 0 -60z"/>
<path d="M402 975 c-2 -30 0 -55 5 -55 4 0 199 -1 433 -1 l425 -1 3 56 3 56
-433 0 -433 0 -3 -55z"/>
<path d="M1092 513 l3 -58 58 -3 57 -3 0 61 0 60 -60 0 -61 0 3 -57z"/>
<path d="M1322 513 l3 -58 58 -3 57 -3 0 61 0 60 -60 0 -61 0 3 -57z"/>
<path d="M1552 513 l3 -58 58 -3 57 -3 0 61 0 60 -60 0 -61 0 3 -57z"/>
</g>
</svg>
